<svg id="Layer_3" data-name="Layer 3" xmlns="http://www.w3.org/2000/svg" viewBox="0 0 1279 812.68"><defs><style>.cls-1{fill:#d3f1df;}.cls-2{fill:#a8e4bf;}.cls-3{fill:#7cd69f;}.cls-4{fill:#50c87f;}.cls-5{fill:none;}.cls-6{fill:#3c965f;}.cls-7{fill:#cdd3cf;}</style></defs><path class="cls-1" d="M850.56,525.69c16.26,6.5,45.53,7.58,64,11.92,9.58,2.25,29.26,4.2,39,5.42a136.38,136.38,0,0,0,17.35,1.09c3.46-2.09,9.75-3.25,13-5.43,5.42-4.33,19.51-13,31.43-19.51,4.34-5.42,10.51-10.59,15.18-14.09,4.34-3.25,16-13.57,19.52-16.26,22.27-16.89,27.13-18,45.53-39,2.07-2.37,9.13-11.29,10.49-14.32,2.28-5.11,3.34-11.72,4.69-17.12,2.16-8.67,1.27-20.47,1.08-28.19-.42-16.6,1.08-37.94-6.5-43.36-8.33-5.95-16.08-1.49-21.83,2.82-6.36,4.77-12.87,13.44-16.12,25.36-1.14,4.19-3.1,22.94-4.33,40.12-.5,6.84-3.79,13.8-7.59,19.51-4.34,6.51-19.47,32.47-31.44,44.45-8.68,8.67-54.21,31.44-75.89,43.36C910.74,527,871.16,522.43,850.56,525.69Z" transform="translate(-6.5 -4.63)"/><path class="cls-2" d="M1015.34,519.18c15.18-8.67,28.19-14.09,47.71-17.34,3.25-2.17,16.83-8.75,21.68-11.93,3.89-2.56,16-10.47,22.76-15.18a102,102,0,0,0,9.76-7.59c1-.79,8.81-9,9.76-9.75,9.5-7.94,14.57-13.48,23.85-21.69,4.64-4.1,12.76-11,17.34-15.17a54.92,54.92,0,0,0,9.76-10.84c1.08-3.26,1.78-5.87,3.25-9.76a91.48,91.48,0,0,0,3-10c2.15-7.72,3.62-15.63,5.59-23.4,2.24-8.87,5.1-17.41,6.57-26.11.59-3.46,1.14-8.25-.34-11.43-2-4.26-7-7.3-11.7-7.73-16-1.45-25,10.17-34.19,23.37-10,14.43-11.64,30.8-18.55,47.19a222.76,222.76,0,0,1-39.92,61.82C1070.51,476.7,1030,500.21,1015.34,519.18Z" transform="translate(-6.5 -4.63)"/><path class="cls-3" d="M1058.71,502.92c16.26-2.17,26-2,32.52-1.08,7.59,1.08,17.35,6.5,18.43,11.92,2,.67,20.71-14.2,28.19-21.68l52-52c7.58-6.5,18.24-25.64,20.59-30.35,7.38-14.76,20.6-27.11,33.48-35,7.28-4.43,13.14-7.31,22.9-7.31,2.17-5.42,8.79-17.14,10.84-22.77,1-2.88,5.42-14.09,5.42-19.51,0-6.82,1.08-16.27-13-20.6-9.83-3-27.1,3.25-39,19.51-3.62,4.95-14.09,17.35-22.76,35.78-3.92,8.32-11.93,22.76-11.93,22.76s-7.59,16.27-13,21.69c-6.5,8.67-17.34,18.43-30.35,29.27-13,11.92-23.82,21.65-34.69,32.52-6.51,6.5-12.43,9-27.11,19.51C1083.64,491,1068.47,498.58,1058.71,502.92Z" transform="translate(-6.5 -4.63)"/><path class="cls-4" d="M840.46,652.8a209,209,0,0,1,97.43-20.5c21.7.75,46.31,1.54,66.81-5.63,30-10.47,43.6-42.39,67-63.86,10.76-9.89,17.69-13.59,28.54-23.38,3.31-3,7.68-8.49,9-12.74,2.81-8.66,2.88-17.06-5.4-20.87a62.5,62.5,0,0,0-28-5.09c-18.41,1-37.88,5.24-54,14.11-10.1,5.56-29.27,16.27-37.94,23.85l-13,5.43s-40.55-2.77-55.29-6.51c-18.22-4.62-43.37-5.42-61.46-11.23-35.69-11.47-66.93-13.18-104.41-13.7-18.84-.27-45.54,4.37-63.42,10.31-16.69,5.54-30.29,12.56-45,22.21-22.43,14.71-34.39,32.26-60.71,41.2" transform="translate(-6.5 -4.63)"/><path class="cls-5" d="M659.31,533.84c-19.29-.74-42.77-1.29-60.07,7.29S570,566.32,558.92,582.26c-18.51,26.59-37.2,53.63-47.92,84.21-11.52,32.85-9,68.23-9.61,103-.14,7.53,2.92,47.77,2.92,47.77s152.42-148.08,182.55-93.19c0,0-18,14.08,0-1.5s132.88-29.28,200.76-35.31c46.35-4.11,92.7-8.23,139.11-11.44,4.94-.34,10-.69,14.54-2.65,7.92-3.42,27.85-21.86,33.65-28.24,10.84-11.93,28.28-30.58,46.62-46.62,17.34-15.18,42.13-30,55.29-41.2,21.68-18.43,30.35-44.44,60.71-82.39l16-17.27,25.07-49.24c5-9.71,9.9-21.46,4.6-31-3.89-7-12.53-10.34-20.51-9.77s-15.35,4.45-21.92,9A103.17,103.17,0,0,0,1211.86,407c-4.19,6.78-7.58,14-12,20.66-6,9-13.8,16.64-21.53,24.22L1138,491.3c-8.54,8.36-16.18,15.78-26.87,21.11" transform="translate(-6.5 -4.63)"/><path class="cls-4" d="M504.19,817.31H690.66l-1.36-18c-1.77-20.95-2.87-45.89-2.49-75.19l.06-1.5C751,699.51,819.74,693.3,887.62,687.27c46.35-4.11,92.7-8.23,139.11-11.44,4.94-.34,10-.69,14.54-2.65,7.92-3.42,27.85-21.86,33.65-28.24,10.84-11.93,28.28-30.58,46.62-46.62,17.34-15.18,42.14-30,55.29-41.2,21.68-18.43,30.35-44.44,60.71-82.39l16-17.27,25.07-49.24c5-9.71,9.9-21.46,4.6-31-3.88-7-12.53-10.34-20.51-9.77s-15.35,4.45-21.92,9A103.17,103.17,0,0,0,1211.81,407c-4.18,6.78-7.58,14-12,20.66-6,9-13.8,16.64-21.53,24.22L1138,491.3c-8.54,8.36-16.18,15.78-26.87,21.11l-42.65,16.53c-23.85,7.59-124.25,37.61-166.32,42.65-14.47,1.74-29,4.31-43.53,3.3-16.11-1.11-31.55-6.56-47-11.44C767,549.3,738.82,541.66,692.28,536.53l-33-2.69C640,533.1,615.8,540.42,598.51,549S570,566.32,558.87,582.26c-18.51,26.59-37.2,53.63-47.92,84.21-11.52,32.85-9,68.23-9.61,103-.14,7.53,2.18,40.69,2.92,47.77" transform="translate(-6.5 -4.63)"/><path class="cls-2" d="M528.58,628.68c6-12.47,16.08-27.28,24.95-41.14,13.31-20.8,28-35.9,45-42.88,27.64-11.39,52-10.84,61.79-10.84-9.76,6.5-57.46,35.77-73.18,45C553,597.78,528.58,628.68,528.58,628.68Z" transform="translate(-6.5 -4.63)"/><path class="cls-6" d="M1105.11,529.26c-6.38,9.53-14.85,17.37-23.92,24.3-8.58,6.58-16.77,13.41-23.83,21.64-10.46,12.2-18.93,26.26-31,37a50.19,50.19,0,0,1-8.77,6,111.87,111.87,0,0,1-13,6.32,90.27,90.27,0,0,1-16.54,5.06,100.79,100.79,0,0,1-13.32,1.54c-18.4,1.19-36.83-.13-55.24.63a169.24,169.24,0,0,0-32.27,4c-12.76,3-25.19,7.33-37.48,11.85q-4.69,1.73-9.35,3.48c-1.8.67-1,3.57.79,2.89,12.51-4.69,25-9.36,37.9-13a162.17,162.17,0,0,1,17.66-4.14c5.36-.88,10.78-1.39,16.19-1.75,18.69-1.23,37.41.07,56.11-.68,10.09-.41,20-1.4,29.64-4.55a108.19,108.19,0,0,0,25.31-12,52.52,52.52,0,0,0,9.16-8.08c3.19-3.35,6.18-6.89,9.08-10.48,4.59-5.68,8.86-11.59,13.39-17.3a134.09,134.09,0,0,1,21-21.17c4.87-3.92,9.95-7.54,14.65-11.67a99,99,0,0,0,11.69-12q2.49-3.06,4.7-6.35c1.07-1.61-1.52-3.11-2.6-1.52Z" transform="translate(-6.5 -4.63)"/><path class="cls-7" d="M944.62,338.3C918,333.93,876.77,351.25,884,305.38c14.85-94.26-84.15-99.62-143.79-89.35-134.36,23.13-90-39.84-162.06-26.08-45.25,8.63-64.93,32.89-102.11,18.28-40.73-16-56.35-3.72-67.84,13-10.41,15.1-14.08,53.34,16.19,84.95,35,36.58,16.93,72,8.19,103.37-17.36,62.41-4.17,123.73,167.64,66.9,47-15.55,93.66-38.42,132.65-36.18,19.07,1.1,73.24,26,92.4,24.58,37.2-2.72,35.84-39.5,65.91-54.79,27.94-14.21,91.21-11.88,92.49-39C984.28,358,962.3,341.2,944.62,338.3Z" transform="translate(-6.5 -4.63)"/><path class="cls-7" d="M248.77,723.11c27.5,32.78,34.11-30.5,53.25-21,20.89,10.33,19.21,50.92,31.43,59.87,14.42,10.57,29-18.31,37.35-47.33,20.55-71.28,36.33-54.54,64.61-59.18s19.29-100-7.41-96.1-51.88,18.26-63.7-27.54-5.34-40.21-12.06-46.27c-13-11.77-36.51,8.74-55.55,6.35-17.7-2.21-35.37-26-53.38-11.69-8.6,6.85-12,36.77.62,58.72,6.45,11.22,79,41.75,47.24,72.1S221.27,690.32,248.77,723.11Z" transform="translate(-6.5 -4.63)"/><path class="cls-7" d="M988.24,277.46c38.28-17.24,18.7,49,53.42,43,23.71-4,16.52-29.17,12.8-51.07-4.31-25.34,9.71-31.93,19.6-45.18,19.64-26.32,27.93-55.23-44.15-69.05-87-16.69-1.23-56.8-74.91-67.09-48.59-6.79-83.66-1.56-82.26,33.89s41,25.72,59.22,48.77C964.54,211.89,930.59,303.42,988.24,277.46Z" transform="translate(-6.5 -4.63)"/><path class="cls-7" d="M294.89,249.3c117.7-3.59,25.09-108,101.68-118,21.29-2.77,47.64,23.13,64.47,15.55,18.44-8.31,20.11-17.11,19.1-25.91-.91-8-10.88-20.82-30.36-20.66-22.53.19-26.8-16.44-33.06-28.85C404.29,46.79,359.07,3.07,335,83.37c-9.75,32.52,10.85,56.37-28.6,75.91-.38.18-34.8,10-42.95,30.33C254.76,211.29,261.26,250.32,294.89,249.3Z" transform="translate(-6.5 -4.63)"/><path class="cls-7" d="M108.41,519.18c-32-11.84-120.84-10.36-82.4-57.46C69.38,408.6,6.5,420.53,6.5,377.16c0-66.45,77.58-25,99.74-33.6,39-15.18,24.22-71.9,58.54-62.88,25,6.57,17.76,40.83,37.12,46.74,52.86,16.14,79.73-42.38,103.81-31.57,74.81,33.61,77.34,117.81,45.54,101.91-60.71-30.35-53.73,20.64-95.41,11.93-44.25-9.26-60.8-27-91-2.23C137.37,430,203.85,554.46,108.41,519.18Z" transform="translate(-6.5 -4.63)"/><path class="cls-7" d="M554,79.69c-70.29,6.38-74.86-89,16.27-55.11C687.32,68.09,671.69-10.11,701.41,7.17c26.89,15.65,24,37.39,31,54.33,19.16,46.23,63.3,42.37,89.32,57.84,68.23,40.57-65,53.18-138.77,19.33C651.39,124.17,617.94,73.89,554,79.69Z" transform="translate(-6.5 -4.63)"/></svg>